<svg width="61" height="61" viewBox="0 0 61 61" fill="none" xmlns="http://www.w3.org/2000/svg">
<g clip-path="url(#clip0)">
<rect width="59.7766" height="59.7766" transform="translate(0.756348 0.421326)" fill="#E53170"/>
<rect width="59.7766" height="59.7766" transform="translate(0.756348 0.421326)" fill="url(#paint0_linear)"/>
<path d="M51.66 30.3097C51.8468 32.3645 50.4457 34.0457 48.4843 34.0457H12.8051C10.8437 34.0457 9.44269 32.3645 9.62949 30.3097L11.5909 9.57463C11.7777 7.51981 13.5523 5.83859 15.5138 5.83859H45.7757C47.7371 5.83859 49.5117 7.51981 49.6985 9.57463L51.66 30.3097Z" fill="#B4D7EE"/>
<path d="M9.06909 28.9086H14.6732V36.3807H9.06909V28.9086Z" fill="#3E4347"/>
<path d="M46.6162 28.9086H52.2203V36.3807H46.6162V28.9086Z" fill="#3E4347"/>
<path d="M14.3931 47.9624H19.9971V57.3959H14.3931V47.9624Z" fill="#3E4347"/>
<path d="M41.2925 47.9624H46.8965V57.3959H41.2925V47.9624Z" fill="#3E4347"/>
<path d="M39.4245 23.7716C39.1443 26.2 37.1829 28.2548 35.2215 28.2548H26.0682C24.0133 28.2548 22.1453 26.2934 21.8651 23.7716L20.1839 10.135C19.9037 7.70662 21.3047 5.65179 23.2661 5.65179H37.9301C39.9849 5.65179 41.3859 7.70662 41.0123 10.135L39.4245 23.7716Z" fill="#428BC1"/>
<path d="M22.2385 55.4345C22.0517 54.9675 21.4913 54.5005 21.0243 54.5005H13.5523C12.9918 54.5005 12.5248 54.8741 12.338 55.4345L10.937 59.264C10.7502 59.731 11.0304 60.198 11.5908 60.198H22.799C23.3594 60.198 23.6396 59.8244 23.4528 59.264L22.2385 55.4345Z" fill="#94989B"/>
<path d="M50.3522 59.264L49.0446 55.4345C48.8578 54.9675 48.2974 54.5005 47.8304 54.5005H40.3583C39.7979 54.5005 39.3309 54.8741 39.1441 55.4345L37.8364 59.264C37.6496 59.731 37.9298 60.198 38.4902 60.198H49.6984C50.1654 60.198 50.4456 59.8244 50.3522 59.264Z" fill="#94989B"/>
<path d="M43.9076 6.02539C43.9076 8.08021 42.3198 9.76143 40.3584 9.76143H20.8376C18.8761 9.76143 17.2883 8.08021 17.2883 6.02539V4.15737C17.2883 2.10254 18.8761 0.421326 20.8376 0.421326H40.3584C42.3198 0.421326 43.9076 2.10254 43.9076 4.15737V6.02539Z" fill="#29ABE2"/>
<path d="M15.2336 27.6944L14.9534 25.733C14.7666 24.7056 13.9259 23.865 12.9919 23.865H10.4701C9.5361 23.865 8.69549 24.7056 8.50869 25.733L8.22848 27.6944C8.04168 28.7218 8.69549 29.5625 9.6295 29.5625H13.8325C14.7666 29.5625 15.4204 28.7218 15.2336 27.6944Z" fill="#29ABE2"/>
<path d="M52.8742 27.6944L52.594 25.733C52.4072 24.7056 51.5666 23.865 50.6326 23.865H48.1107C47.1767 23.865 46.3361 24.7056 46.1493 25.733L45.8691 27.6944C45.6823 28.7218 46.3361 29.5625 47.2701 29.5625H51.4732C52.4072 29.5625 52.9676 28.7218 52.8742 27.6944Z" fill="#29ABE2"/>
<path d="M48.8579 34.0457H12.4315C9.53604 34.0457 7.76142 36.8477 8.32183 40.3036L8.69543 42.732C9.25584 46.1878 12.1513 48.9898 14.9533 48.9898H46.1492C49.0447 48.9898 51.8467 46.1878 52.4071 42.732L52.8741 40.3036C53.5279 36.9411 51.6599 34.0457 48.8579 34.0457Z" fill="#29ABE2"/>
</g>
<defs>
<linearGradient id="paint0_linear" x1="29.8883" y1="0" x2="29.8883" y2="59.7766" gradientUnits="userSpaceOnUse">
<stop stop-color="white"/>
<stop offset="1" stop-color="white" stop-opacity="0"/>
</linearGradient>
<clipPath id="clip0">
<rect width="59.7766" height="59.7766" fill="white" transform="translate(0.756348 0.421326)"/>
</clipPath>
</defs>
</svg>
