<svg width="152" height="152" viewBox="0 0 152 152" fill="none" xmlns="http://www.w3.org/2000/svg">
<g clip-path="url(#clip0)">
<path d="M139.092 103.657C139.092 112.385 136.646 119.451 133.653 119.451C130.649 119.451 128.214 112.385 128.214 103.657C128.214 94.9288 130.649 87.8513 133.653 87.8513C136.646 87.8513 139.092 94.9406 139.092 103.657Z" fill="#2F2F2F"/>
<path d="M131.29 117.895C131.29 117.895 132.739 120.211 134.306 120.994C137.857 122.764 142.797 122.111 145.766 118.073L144.174 108.454L134.128 110.366L131.29 117.895Z" fill="#2F2F2F"/>
<path d="M28.1556 123.666C28.1556 132.988 24.8662 140.552 20.8287 140.552C16.7794 140.552 13.49 132.988 13.49 123.666C13.49 114.332 16.7794 106.768 20.8287 106.768C24.8662 106.78 28.1556 114.332 28.1556 123.666Z" fill="#2F2F2F"/>
<path d="M17.6343 138.902C17.6343 138.902 19.5818 141.384 21.7193 142.215C26.5049 144.103 33.1549 143.402 37.1568 139.104L35.0074 128.82L21.4699 130.862L17.6343 138.902Z" fill="#2F2F2F"/>
<path d="M41.503 123.666C41.503 132.988 38.2137 140.552 34.1762 140.552C30.1268 140.552 26.8374 132.988 26.8374 123.666C26.8374 114.332 30.1268 106.768 34.1762 106.768C38.2137 106.78 41.503 114.332 41.503 123.666Z" fill="#2F2F2F"/>
<path d="M107.801 123.666C107.801 132.988 104.512 140.552 100.474 140.552C96.4251 140.552 93.1357 132.988 93.1357 123.666C93.1357 114.332 96.4251 106.768 100.474 106.768C104.512 106.78 107.801 114.332 107.801 123.666Z" fill="#2F2F2F"/>
<path d="M97.28 138.902C97.28 138.902 99.2275 141.384 101.365 142.215C106.151 144.103 112.801 143.402 116.814 139.104L114.665 128.82L101.128 130.862L97.28 138.902Z" fill="#2F2F2F"/>
<path d="M135.375 14.4994H20.5556C8.64494 14.4994 0.189941 21.7788 0.189941 32.49V108.894C0.189941 120.793 9.84432 130.447 21.7431 130.447H87.8512C105.212 130.447 110.889 128.203 121.505 121.208C132.418 114.024 152 102.149 152 92.4113V32.3831C152 20.4844 147.274 14.4994 135.375 14.4994Z" fill="#FCC21B"/>
<path d="M-0.451172 97.4581H102.066V132.406H-0.451172V97.4581Z" fill="#ED6C30"/>
<path d="M102.066 139.638L155.943 104.429V65.1344L102.066 97.4581V139.638Z" fill="#ED6C30"/>
<path d="M95.1305 79.8356C95.1305 83.8256 91.8886 87.0794 87.8868 87.0794H18.2993C14.3093 87.0794 11.0674 83.8256 11.0674 79.8356V33.8319C11.0674 29.8419 14.3093 26.5881 18.2993 26.5881H87.8749C91.8768 26.5881 95.1186 29.8419 95.1186 33.8319V79.8356H95.1305Z" fill="#40C0E7"/>
<path d="M7.84937 23.7975H99.2869V45.03H7.84937V23.7975Z" fill="#2F2F2F"/>
<path d="M24.0349 30.8275H83.0893V40.4462H24.0349V30.8275Z" fill="white"/>
<path d="M128.749 58.1519C128.749 61.2394 126.944 64.7544 124.581 66.0963L115.781 71.0956C112.528 72.9244 109.689 71.2975 109.689 67.2956V34.7344C109.689 30.7444 112.539 27.5025 115.781 27.5025H124.581C126.944 27.5025 128.749 30.0081 128.749 33.0719V58.1519ZM142.904 31.8013C142.904 29.4619 142.037 27.5619 140.921 27.5619H136.954C135.577 27.5619 134.389 29.83 134.389 32.6088V55.2425C134.389 58.0213 135.577 59.565 136.954 58.6981L140.921 56.2756C142.037 55.5869 142.904 53.1644 142.904 50.825V31.8013Z" fill="#40C0E7"/>
<path d="M19.0949 119.724C23.6005 119.724 27.253 116.077 27.253 111.577C27.253 107.078 23.6005 103.431 19.0949 103.431C14.5893 103.431 10.9368 107.078 10.9368 111.577C10.9368 116.077 14.5893 119.724 19.0949 119.724Z" fill="white"/>
<path d="M93.9669 111.577C93.9669 116.078 90.3094 119.724 85.7969 119.724C81.3081 119.724 77.6506 116.078 77.6506 111.577C77.6506 107.065 81.2963 103.431 85.7969 103.431C90.3094 103.431 93.9669 107.065 93.9669 111.577Z" fill="white"/>
<path d="M121.149 123.666C121.149 132.988 117.859 140.552 113.822 140.552C109.773 140.552 106.483 132.988 106.483 123.666C106.483 114.332 109.773 106.768 113.822 106.768C117.859 106.78 121.149 114.332 121.149 123.666Z" fill="#2F2F2F"/>
<path d="M148.984 103.657C148.984 112.385 146.549 119.451 143.545 119.451C140.541 119.451 138.106 112.385 138.106 103.657C138.106 94.9288 140.541 87.8513 143.545 87.8513C146.561 87.8513 148.984 94.9406 148.984 103.657Z" fill="#2F2F2F"/>
</g>
<defs>
<clipPath id="clip0">
<rect width="152" height="152" fill="white"/>
</clipPath>
</defs>
</svg>
